<svg width="315" height="342" viewBox="0 0 315 342" fill="none" xmlns="http://www.w3.org/2000/svg">
<path d="M116.334 213.306C120.009 196.101 110.82 186.666 94.2803 181.116C85.0913 178.033 74.5294 175.566 56.9117 182.226L52.0109 183.891L47.1102 186.666L42.2094 189.441L38.0689 193.326C12.192 213.861 17.0928 263.81 72.8393 278.24L99.1811 286.01L139 296C110.82 282.68 101.631 246.05 104.082 235.506C106.532 224.961 106.532 228.291 106.532 228.291L110.059 222.741L113.271 218.856L116.334 213.306Z" fill="#5BAA55"/>
<path d="M205.574 147.675C201.265 124.93 212.038 112.457 231.43 105.12C242.203 101.043 254.586 97.7824 275.241 106.587L280.987 108.788L286.733 112.457L292.479 116.125L297.333 121.261C327.671 148.409 321.926 214.444 256.568 233.521L225.684 243.793L179 257C212.038 239.391 222.811 190.965 219.939 177.024C217.066 163.084 217.066 167.486 217.066 167.486L212.931 160.149L209.165 155.013L205.574 147.675Z" fill="#5BAA55"/>
<path d="M127.932 46.9746C132.97 24.0835 120.375 11.5302 97.7031 4.14597C85.1079 0.04359 70.6308 -3.23824 46.4825 5.62283L39.765 7.83811L33.0475 11.5302L26.3301 15.2224L20.6548 20.3913C-14.8144 47.7131 -8.09693 114.171 68.3142 133.37L104.421 143.708L159 157C120.375 139.278 107.779 90.5417 111.138 76.5116C114.497 62.4816 114.497 66.9121 114.497 66.9121L119.331 59.5279L123.733 54.3589L127.932 46.9746Z" fill="#5BAA55"/>
<g style="mix-blend-mode:darken">
<path d="M152.638 287.831C150.589 276.705 155.712 270.604 164.935 267.015C170.058 265.021 175.947 263.426 185.77 267.733L188.503 268.81L191.235 270.604L193.968 272.399L196.277 274.911C210.705 288.19 207.972 320.491 176.889 329.823L162.202 334.847L140 341.307C155.712 332.694 160.836 309.006 159.469 302.187L158.103 297.522L156.137 293.933L154.346 291.42L152.638 287.831Z" fill="#5BAA55"/>
</g>
</svg>
