<svg width="99" height="93" viewBox="0 0 99 93" fill="none" xmlns="http://www.w3.org/2000/svg">
<rect width="98.1667" height="93" rx="6" fill="#A6A6A6" fill-opacity="0.44"/>
<rect x="28.4167" y="54.25" width="5.16667" height="28.4167" fill="#C4C4C4"/>
<rect x="43.9167" y="46.5" width="5.16667" height="36.1667" fill="#C4C4C4"/>
<rect x="56.8334" y="38.75" width="5.16667" height="43.9167" fill="#C4C4C4"/>
<rect x="69.75" y="28.4167" width="5.16667" height="54.25" fill="#C4C4C4"/>
<path d="M47.7917 38.75L47.4799 38.3592L47.7917 38.75ZM72.8169 7.62285C72.7467 7.35578 72.4733 7.19621 72.2062 7.26643L67.8542 8.41078C67.5871 8.481 67.4275 8.75442 67.4977 9.02149C67.568 9.28855 67.8414 9.44812 68.1085 9.3779L71.977 8.36071L72.9942 12.2292C73.0644 12.4963 73.3378 12.6558 73.6049 12.5856C73.8719 12.5154 74.0315 12.242 73.9613 11.9749L72.8169 7.62285ZM18.0834 54.25C18.2597 54.7179 18.2598 54.7178 18.26 54.7178C18.2601 54.7177 18.2604 54.7176 18.2607 54.7175C18.2614 54.7172 18.2623 54.7169 18.2636 54.7164C18.266 54.7155 18.2697 54.7141 18.2745 54.7123C18.2842 54.7086 18.2985 54.7032 18.3173 54.696C18.355 54.6817 18.4108 54.6604 18.4839 54.6324C18.6301 54.5762 18.8454 54.493 19.1228 54.3842C19.6777 54.1668 20.481 53.8472 21.4767 53.4383C23.468 52.6206 26.2296 51.4452 29.3121 50.014C35.4668 47.1562 42.9397 43.2608 48.1035 39.1408L47.4799 38.3592C42.4145 42.4005 35.0332 46.255 28.891 49.107C25.8251 50.5305 23.0777 51.6999 21.0969 52.5133C20.1066 52.9199 19.3082 53.2375 18.7579 53.4532C18.4827 53.5611 18.2695 53.6435 18.1254 53.6988C18.0533 53.7265 17.9985 53.7474 17.9618 53.7614C17.9435 53.7683 17.9297 53.7736 17.9205 53.777C17.916 53.7788 17.9125 53.7801 17.9103 53.7809C17.9092 53.7813 17.9083 53.7816 17.9078 53.7818C17.9075 53.7819 17.9074 53.782 17.9072 53.7821C17.9071 53.7821 17.9071 53.7821 18.0834 54.25ZM48.1035 39.1408C54.1969 34.2794 60.3659 26.4801 64.9971 19.9274C67.3166 16.6455 69.2577 13.6657 70.6191 11.5062C71.2998 10.4263 71.8358 9.55126 72.2018 8.94571C72.3848 8.64293 72.5254 8.40751 72.6203 8.24754C72.6678 8.16755 72.7039 8.10643 72.7282 8.06517C72.7403 8.04454 72.7495 8.02888 72.7557 8.01831C72.7588 8.01303 72.7611 8.00902 72.7627 8.0063C72.7635 8.00494 72.7641 8.0039 72.7645 8.00319C72.7647 8.00283 72.7649 8.00254 72.765 8.00236C72.7651 8.00215 72.7652 8.00202 72.3334 7.75C71.9015 7.49798 71.9015 7.49801 71.9015 7.49812C71.9014 7.49827 71.9013 7.49847 71.9011 7.49876C71.9007 7.49935 71.9002 7.50026 71.8995 7.50149C71.898 7.50396 71.8959 7.50771 71.8929 7.51273C71.887 7.52278 71.8781 7.53792 71.8663 7.55802C71.8427 7.59822 71.8072 7.65827 71.7604 7.73715C71.6668 7.89492 71.5276 8.12803 71.346 8.4284C70.9829 9.02915 70.4502 9.89886 69.7731 10.9729C68.4188 13.1213 66.4876 16.0859 64.1805 19.3502C59.5583 25.8901 53.4565 33.5908 47.4799 38.3592L48.1035 39.1408Z" fill="#C4C4C4"/>
</svg>
