<svg width="48" height="42" viewBox="0 0 48 42" fill="none" xmlns="http://www.w3.org/2000/svg">
<path d="M16.5 37L16.785 38.4727L17.7156 38.2925L17.9524 37.3748L16.5 37ZM20.5 21.4999L20.2167 20.0269L19.2847 20.2062L19.0476 21.1251L20.5 21.4999ZM33.5 18.9999L33.7833 20.4729L34.5786 20.32L34.887 19.5711L33.5 18.9999ZM41.8846 1.42308C41.566 0.658376 40.6878 0.296759 39.9231 0.615383L27.4615 5.80767C26.6968 6.1263 26.3352 7.00451 26.6538 7.76921C26.9725 8.53391 27.8507 8.89553 28.6154 8.57691L39.6923 3.96154L44.3077 15.0385C44.6263 15.8032 45.5045 16.1648 46.2692 15.8462C47.0339 15.5275 47.3955 14.6493 47.0769 13.8846L41.8846 1.42308ZM1.28502 41.4726L16.785 38.4727L16.215 35.5273L0.714967 38.5273L1.28502 41.4726ZM17.9524 37.3748L21.9524 21.8748L19.0476 21.1251L15.0476 36.6252L17.9524 37.3748ZM20.7833 22.9729L33.7833 20.4729L33.2167 17.5269L20.2167 20.0269L20.7833 22.9729ZM34.887 19.5711L41.887 2.57113L39.113 1.42887L32.113 18.4288L34.887 19.5711Z" fill="black"/>
</svg>
